<?xml version="1.0" encoding="UTF-8" standalone="no"?>
<svg
   xmlns:dc="http://purl.org/dc/elements/1.1/"
   xmlns:cc="http://creativecommons.org/ns#"
   xmlns:rdf="http://www.w3.org/1999/02/22-rdf-syntax-ns#"
   xmlns:svg="http://www.w3.org/2000/svg"
   xmlns="http://www.w3.org/2000/svg"
   viewBox="0 0 682.66669 682.66669"
   height="682.66669"
   width="682.66669"
   xml:space="preserve"
   id="svg2"
   version="1.1"><metadata
     id="metadata8"><rdf:RDF><cc:Work
         rdf:about=""><dc:format>image/svg+xml</dc:format><dc:type
           rdf:resource="http://purl.org/dc/dcmitype/StillImage" /></cc:Work></rdf:RDF></metadata><defs
     id="defs6"><clipPath
       id="clipPath18"
       clipPathUnits="userSpaceOnUse"><path
         id="path16"
         d="M 0,512 H 512 V 0 H 0 Z" /></clipPath><clipPath
       id="clipPath142"
       clipPathUnits="userSpaceOnUse"><path
         id="path140"
         d="m 235.517,391 h 55.821 v -55.821 h -55.821 z" /></clipPath><clipPath
       id="clipPath166"
       clipPathUnits="userSpaceOnUse"><path
         id="path164"
         d="M 164.697,388.546 H 293.794 V 247.841 H 164.697 Z" /></clipPath><clipPath
       id="clipPath182"
       clipPathUnits="userSpaceOnUse"><path
         id="path180"
         d="M 229.708,377.485 H 347.303 V 250.295 H 229.708 Z" /></clipPath><clipPath
       id="clipPath198"
       clipPathUnits="userSpaceOnUse"><path
         id="path196"
         d="M 237.919,303.03 H 248.43 V 292.519 H 237.919 Z" /></clipPath></defs><g
     transform="matrix(1.3333333,0,0,-1.3333333,0,682.66667)"
     id="g10"><g
       id="g12"><g
         clip-path="url(#clipPath18)"
         id="g14"><g
           transform="translate(103.9424,173.2969)"
           id="g20"><path
             id="path22"
             style="fill:#5b5b5b;fill-opacity:1;fill-rule:nonzero;stroke:none"
             d="m 0,0 c 0.516,-0.047 1.044,-0.082 1.583,-0.105 0.54,-0.025 1.278,-0.036 2.217,-0.036 3.049,0 5.805,0.468 8.268,1.408 2.463,0.938 4.549,2.286 6.262,4.045 1.712,1.759 3.037,3.917 3.976,6.474 0.938,2.557 1.407,5.43 1.407,8.619 0,1.642 -0.211,3.133 -0.633,4.469 -0.422,1.337 -1.115,2.486 -2.076,3.448 -0.962,0.96 -2.206,1.699 -3.729,2.217 -1.525,0.516 -3.366,0.773 -5.524,0.773 -1.407,0 -2.838,-0.07 -4.292,-0.21 z M 34.972,20.969 C 34.972,16.23 34.198,11.986 32.65,8.232 31.102,4.479 28.885,1.302 26,-1.302 23.116,-3.905 19.608,-5.911 15.48,-7.317 11.352,-8.725 6.685,-9.43 1.478,-9.43 c -1.97,0 -4.246,0.118 -6.825,0.354 -2.581,0.234 -5.067,0.607 -7.459,1.125 l 11.328,47.074 c 2.675,0.516 5.243,0.88 7.706,1.091 2.462,0.211 4.679,0.316 6.649,0.316 3.471,0 6.579,-0.469 9.324,-1.407 2.744,-0.938 5.066,-2.275 6.966,-4.01 1.899,-1.736 3.342,-3.801 4.327,-6.192 0.985,-2.394 1.478,-5.044 1.478,-7.952" /></g><g
           transform="translate(151.5786,213.2637)"
           id="g24"><path
             id="path26"
             style="fill:#5b5b5b;fill-opacity:1;fill-rule:nonzero;stroke:none"
             d="M 0,0 H 10.977 L -0.774,-48.763 H -11.68 Z" /></g><g
           transform="translate(173.7437,172.6631)"
           id="g28"><path
             id="path30"
             style="fill:#5b5b5b;fill-opacity:1;fill-rule:nonzero;stroke:none"
             d="m 0,0 c 1.079,0 2.158,0.082 3.238,0.246 1.078,0.165 2.04,0.458 2.884,0.881 0.845,0.422 1.536,1.019 2.076,1.794 0.539,0.773 0.809,1.77 0.809,2.99 0,0.939 -0.258,1.747 -0.774,2.428 -0.517,0.679 -1.173,1.302 -1.97,1.864 -0.798,0.564 -1.689,1.079 -2.674,1.548 -0.985,0.469 -1.97,0.985 -2.955,1.549 -1.267,0.749 -2.463,1.548 -3.589,2.391 -1.126,0.846 -2.087,1.795 -2.885,2.85 -0.798,1.057 -1.431,2.228 -1.9,3.519 -0.469,1.29 -0.703,2.78 -0.703,4.468 0,2.158 0.41,4.163 1.231,6.016 0.82,1.852 2.041,3.459 3.659,4.821 1.618,1.36 3.647,2.427 6.087,3.201 2.438,0.774 5.3,1.162 8.585,1.162 1.5,0 2.955,-0.13 4.362,-0.388 1.407,-0.258 2.72,-0.575 3.94,-0.949 1.22,-0.376 2.333,-0.81 3.343,-1.303 1.008,-0.491 1.864,-0.974 2.569,-1.442 l -4.575,-8.091 c -1.173,0.89 -2.603,1.64 -4.292,2.252 -1.689,0.607 -3.518,0.913 -5.488,0.913 -1.081,0 -2.111,-0.094 -3.097,-0.282 C 6.896,32.252 6.028,31.935 5.278,31.489 4.527,31.043 3.929,30.47 3.483,29.765 3.038,29.062 2.815,28.193 2.815,27.161 c 0,-0.939 0.176,-1.723 0.528,-2.356 0.352,-0.633 0.809,-1.187 1.372,-1.655 0.563,-0.469 1.219,-0.891 1.971,-1.266 0.749,-0.376 1.547,-0.774 2.392,-1.197 1.453,-0.75 2.86,-1.546 4.222,-2.392 1.359,-0.845 2.556,-1.818 3.588,-2.919 1.032,-1.104 1.853,-2.357 2.463,-3.765 0.609,-1.408 0.915,-3.073 0.915,-4.997 0,-2.674 -0.493,-4.995 -1.478,-6.966 -0.985,-1.969 -2.37,-3.613 -4.152,-4.925 C 12.854,-6.591 10.731,-7.563 8.269,-8.196 5.806,-8.83 3.073,-9.147 0.071,-9.147 c -1.97,0 -3.812,0.166 -5.524,0.493 -1.713,0.328 -3.261,0.715 -4.644,1.161 -1.384,0.445 -2.581,0.925 -3.589,1.442 -1.009,0.516 -1.818,0.986 -2.427,1.407 l 4.644,8.374 C -10.906,3.354 -10.227,2.956 -9.428,2.534 -8.631,2.112 -7.729,1.712 -6.72,1.337 -5.711,0.961 -4.644,0.645 -3.518,0.388 -2.392,0.13 -1.22,0 0,0" /></g><g
           transform="translate(234.8911,166.6123)"
           id="g32"><path
             id="path34"
             style="fill:#5b5b5b;fill-opacity:1;fill-rule:nonzero;stroke:none"
             d="m 0,0 c -1.924,-0.939 -4.058,-1.688 -6.403,-2.252 -2.346,-0.562 -5.207,-0.845 -8.584,-0.845 -2.91,0 -5.572,0.483 -7.987,1.443 -2.416,0.961 -4.48,2.334 -6.192,4.117 -1.713,1.782 -3.038,3.951 -3.976,6.509 -0.939,2.555 -1.407,5.428 -1.407,8.62 0,3.659 0.645,7.293 1.935,10.906 1.29,3.612 3.19,6.836 5.699,9.675 2.509,2.838 5.582,5.147 9.218,6.931 3.635,1.783 7.822,2.674 12.561,2.674 2.252,0 4.468,-0.257 6.649,-0.773 2.181,-0.518 4.468,-1.433 6.861,-2.745 l -3.94,-8.515 c -1.971,1.031 -3.73,1.736 -5.278,2.112 -1.548,0.374 -3.214,0.562 -4.996,0.562 -2.674,0 -5.078,-0.539 -7.212,-1.618 -2.136,-1.079 -3.965,-2.546 -5.489,-4.398 -1.525,-1.853 -2.686,-4 -3.483,-6.438 -0.798,-2.441 -1.196,-5.021 -1.196,-7.741 0,-4.128 0.903,-7.13 2.709,-9.006 1.805,-1.877 4.398,-2.815 7.776,-2.815 2.251,0 4.327,0.235 6.227,0.703 1.899,0.469 3.67,1.079 5.312,1.831 z" /></g><g
           transform="translate(269.7207,202.5693)"
           id="g36"><path
             id="path38"
             style="fill:#5b5b5b;fill-opacity:1;fill-rule:nonzero;stroke:none"
             d="m 0,0 c -1.97,-3.144 -3.905,-6.264 -5.805,-9.359 -1.9,-3.097 -3.742,-6.262 -5.524,-9.499 H 1.829 c -0.235,2.861 -0.48,5.911 -0.738,9.147 C 0.833,-6.474 0.469,-3.237 0,0 m 3.237,-38.068 c -0.094,1.83 -0.2,3.624 -0.317,5.382 -0.117,1.76 -0.246,3.507 -0.387,5.244 h -18.295 c -0.939,-1.737 -1.924,-3.484 -2.955,-5.244 -1.033,-1.758 -2.017,-3.552 -2.955,-5.382 h -11.47 c 3.049,5.253 5.898,10.108 8.549,14.566 2.65,4.456 5.207,8.654 7.67,12.595 2.463,3.94 4.866,7.68 7.213,11.223 2.345,3.542 4.737,7.001 7.177,10.378 h 9.78 c 0.75,-3.377 1.467,-7.118 2.148,-11.221 0.678,-4.107 1.312,-8.304 1.899,-12.597 0.586,-4.292 1.126,-8.584 1.618,-12.876 0.492,-4.292 0.95,-8.316 1.372,-12.068 z" /></g><g
           transform="translate(313.7686,204.5391)"
           id="g40"><path
             id="path42"
             style="fill:#5b5b5b;fill-opacity:1;fill-rule:nonzero;stroke:none"
             d="M 0,0 C -0.798,0 -1.617,-0.023 -2.462,-0.069 -3.307,-0.117 -4.01,-0.165 -4.573,-0.211 l -3.166,-13.37 h 3.729 c 2.251,0 4.152,0.212 5.699,0.634 1.548,0.422 2.79,0.985 3.729,1.688 0.938,0.705 1.606,1.513 2.006,2.428 0.398,0.915 0.598,1.842 0.598,2.779 0,0.797 -0.118,1.56 -0.352,2.288 C 7.435,-3.037 7.013,-2.393 6.404,-1.829 5.794,-1.267 4.973,-0.821 3.94,-0.492 2.908,-0.165 1.595,0 0,0 m 0.353,9.288 c 3.141,0 5.886,-0.376 8.232,-1.125 2.345,-0.751 4.292,-1.76 5.84,-3.025 1.549,-1.267 2.697,-2.757 3.449,-4.47 0.749,-1.713 1.125,-3.507 1.125,-5.383 0,-1.547 -0.176,-3.073 -0.527,-4.573 -0.353,-1.502 -1.009,-2.933 -1.971,-4.293 -0.962,-1.36 -2.252,-2.615 -3.87,-3.764 -1.618,-1.15 -3.694,-2.123 -6.227,-2.92 1.313,-2.44 2.661,-5.395 4.045,-8.866 1.384,-3.473 2.686,-7.107 3.906,-10.907 H 2.604 c -1.08,3.237 -2.17,6.439 -3.272,9.605 -1.103,3.166 -2.334,5.899 -3.694,8.198 h -5.489 l -4.292,-17.803 H -25.05 l 11.47,48.059 c 2.533,0.469 4.996,0.797 7.389,0.986 2.392,0.186 4.574,0.281 6.544,0.281" /></g><g
           transform="translate(345.9258,173.2969)"
           id="g44"><path
             id="path46"
             style="fill:#5b5b5b;fill-opacity:1;fill-rule:nonzero;stroke:none"
             d="M 0,0 C 0.516,-0.047 1.043,-0.082 1.583,-0.105 2.122,-0.13 2.86,-0.141 3.8,-0.141 c 3.049,0 5.804,0.468 8.267,1.408 2.463,0.938 4.55,2.286 6.263,4.045 1.712,1.759 3.037,3.917 3.976,6.474 0.937,2.557 1.407,5.43 1.407,8.619 0,1.642 -0.211,3.133 -0.633,4.469 -0.423,1.337 -1.115,2.486 -2.076,3.448 -0.962,0.96 -2.206,1.699 -3.73,2.217 -1.525,0.516 -3.366,0.773 -5.523,0.773 -1.407,0 -2.839,-0.07 -4.293,-0.21 z M 34.972,20.969 C 34.972,16.23 34.197,11.986 32.649,8.232 31.102,4.479 28.885,1.302 26,-1.302 23.115,-3.905 19.607,-5.911 15.479,-7.317 11.352,-8.725 6.685,-9.43 1.478,-9.43 c -1.97,0 -4.247,0.118 -6.826,0.354 -2.58,0.234 -5.066,0.607 -7.459,1.125 l 11.329,47.074 c 2.674,0.516 5.243,0.88 7.706,1.091 2.462,0.211 4.678,0.316 6.648,0.316 3.472,0 6.58,-0.469 9.324,-1.407 2.744,-0.938 5.067,-2.275 6.966,-4.01 1.9,-1.736 3.343,-3.801 4.328,-6.192 0.985,-2.394 1.478,-5.044 1.478,-7.952" /></g><g
           transform="translate(395.5312,172.6631)"
           id="g48"><path
             id="path50"
             style="fill:#5b5b5b;fill-opacity:1;fill-rule:nonzero;stroke:none"
             d="m 0,0 c 1.079,0 2.158,0.082 3.237,0.246 1.079,0.165 2.041,0.458 2.885,0.881 0.845,0.422 1.536,1.019 2.076,1.794 0.539,0.773 0.81,1.77 0.81,2.99 0,0.939 -0.259,1.747 -0.775,2.428 -0.516,0.679 -1.172,1.302 -1.969,1.864 -0.799,0.564 -1.69,1.079 -2.675,1.548 -0.985,0.469 -1.97,0.985 -2.954,1.549 -1.268,0.749 -2.464,1.548 -3.59,2.391 -1.125,0.846 -2.087,1.795 -2.885,2.85 -0.798,1.057 -1.431,2.228 -1.899,3.519 -0.47,1.29 -0.704,2.78 -0.704,4.468 0,2.158 0.41,4.163 1.231,6.016 0.82,1.852 2.041,3.459 3.659,4.821 1.618,1.36 3.647,2.427 6.087,3.201 2.439,0.774 5.301,1.162 8.585,1.162 1.5,0 2.955,-0.13 4.362,-0.388 1.408,-0.258 2.72,-0.575 3.941,-0.949 1.219,-0.376 2.333,-0.81 3.342,-1.303 1.008,-0.491 1.865,-0.974 2.569,-1.442 l -4.575,-8.091 c -1.172,0.89 -2.604,1.64 -4.292,2.252 -1.689,0.607 -3.518,0.913 -5.488,0.913 -1.081,0 -2.111,-0.094 -3.096,-0.282 C 6.896,32.252 6.028,31.935 5.278,31.489 4.527,31.043 3.93,30.47 3.483,29.765 3.038,29.062 2.815,28.193 2.815,27.161 c 0,-0.939 0.176,-1.723 0.528,-2.356 0.352,-0.633 0.809,-1.187 1.372,-1.655 0.563,-0.469 1.22,-0.891 1.971,-1.266 0.75,-0.376 1.547,-0.774 2.392,-1.197 1.453,-0.75 2.86,-1.546 4.222,-2.392 1.359,-0.845 2.556,-1.818 3.589,-2.919 1.031,-1.104 1.852,-2.357 2.463,-3.765 0.608,-1.408 0.915,-3.073 0.915,-4.997 0,-2.674 -0.494,-4.995 -1.479,-6.966 C 17.803,-2.321 16.419,-3.965 14.637,-5.277 12.854,-6.591 10.731,-7.563 8.269,-8.196 5.806,-8.83 3.073,-9.147 0.071,-9.147 c -1.97,0 -3.811,0.166 -5.524,0.493 -1.713,0.328 -3.261,0.715 -4.644,1.161 -1.384,0.445 -2.581,0.925 -3.589,1.442 -1.008,0.516 -1.818,0.986 -2.427,1.407 l 4.644,8.374 C -10.906,3.354 -10.227,2.956 -9.428,2.534 -8.631,2.112 -7.729,1.712 -6.72,1.337 -5.711,0.961 -4.644,0.645 -3.518,0.388 -2.392,0.13 -1.22,0 0,0" /></g><g
           transform="translate(100.4209,138.124)"
           id="g52"><path
             id="path54"
             style="fill:#5b5b5b;fill-opacity:1;fill-rule:nonzero;stroke:none"
             d="m 0,0 c -0.431,-1.854 -0.878,-3.562 -1.346,-5.126 -0.466,-1.564 -1.019,-2.94 -1.656,-4.126 -0.268,-0.474 -0.582,-0.941 -0.945,-1.4 -0.364,-0.459 -0.787,-0.875 -1.268,-1.245 -0.482,-0.372 -1.037,-0.679 -1.668,-0.923 -0.631,-0.244 -1.353,-0.398 -2.168,-0.456 l -0.267,2.446 c 1.023,0.102 1.89,0.47 2.602,1.101 0.712,0.629 1.334,1.503 1.868,2.624 0.534,1.119 1.004,2.476 1.412,4.07 0.407,1.594 0.827,3.406 1.256,5.436 H 7.138 L 3.469,-13.01 H 0.667 L 3.765,0 Z" /></g><g
           transform="translate(120.4575,134.7666)"
           id="g56"><path
             id="path58"
             style="fill:#5b5b5b;fill-opacity:1;fill-rule:nonzero;stroke:none"
             d="m 0,0 c -0.563,0 -1.063,-0.168 -1.501,-0.501 -0.437,-0.334 -0.805,-0.761 -1.101,-1.279 -0.296,-0.519 -0.526,-1.086 -0.69,-1.7 -0.163,-0.617 -0.244,-1.212 -0.244,-1.791 0,-0.742 0.137,-1.328 0.412,-1.756 0.273,-0.431 0.745,-0.646 1.412,-0.646 0.547,0 1.045,0.166 1.489,0.5 0.445,0.333 0.816,0.756 1.113,1.268 0.296,0.512 0.526,1.078 0.689,1.702 0.163,0.623 0.244,1.215 0.244,1.778 0,0.741 -0.136,1.331 -0.411,1.768 C 1.138,-0.219 0.667,0 0,0 m -2.046,-9.964 c -1.334,0 -2.361,0.408 -3.08,1.224 -0.719,0.814 -1.079,1.89 -1.079,3.224 v 0.367 c 0,0.126 0.008,0.249 0.023,0.367 H -8.7 l -1.196,-4.87 h -2.668 l 2.802,11.631 h 2.668 l -1.081,-4.582 h 2.438 c 0.207,0.637 0.488,1.253 0.844,1.846 0.356,0.593 0.786,1.111 1.29,1.557 0.504,0.445 1.086,0.8 1.747,1.067 0.659,0.268 1.389,0.401 2.189,0.401 1.335,0 2.361,-0.405 3.081,-1.213 0.719,-0.808 1.078,-1.878 1.078,-3.213 0,-0.875 -0.13,-1.772 -0.389,-2.69 C 3.844,-5.768 3.447,-6.605 2.913,-7.362 2.379,-8.117 1.701,-8.74 0.878,-9.229 0.056,-9.72 -0.919,-9.964 -2.046,-9.964" /></g><g
           transform="translate(133.3555,134.2539)"
           id="g60"><path
             id="path62"
             style="fill:#5b5b5b;fill-opacity:1;fill-rule:nonzero;stroke:none"
             d="m 0,0 c -0.49,0 -0.982,-0.085 -1.479,-0.255 -0.497,-0.171 -0.938,-0.39 -1.323,-0.655 -0.208,-0.729 -0.367,-1.403 -0.479,-2.025 -0.11,-0.623 -0.166,-1.164 -0.166,-1.623 0,-0.934 0.148,-1.601 0.445,-2.002 0.296,-0.4 0.756,-0.6 1.378,-0.6 0.504,0 0.975,0.133 1.413,0.4 0.437,0.268 0.815,0.631 1.134,1.09 0.318,0.459 0.567,0.985 0.744,1.578 0.179,0.594 0.268,1.216 0.268,1.869 C 1.935,-1.541 1.786,-1 1.49,-0.6 1.193,-0.2 0.696,0 0,0 M 5.871,5.76 C 5.515,5.672 5.1,5.601 4.626,5.55 4.151,5.497 3.587,5.427 2.935,5.338 1.645,5.174 0.611,4.793 -0.167,4.192 -0.945,3.592 -1.564,2.714 -2.023,1.558 c 0.384,0.208 0.822,0.373 1.311,0.5 0.489,0.126 0.957,0.189 1.401,0.189 1.157,0 2.083,-0.349 2.78,-1.045 0.697,-0.698 1.046,-1.713 1.046,-3.047 0,-1.112 -0.157,-2.131 -0.468,-3.057 -0.311,-0.927 -0.753,-1.729 -1.323,-2.403 -0.571,-0.674 -1.261,-1.2 -2.068,-1.579 -0.808,-0.378 -1.709,-0.567 -2.702,-0.567 -1.26,0 -2.243,0.386 -2.947,1.156 -0.704,0.772 -1.056,1.921 -1.056,3.447 0,1.068 0.136,2.158 0.412,3.27 0.274,1.111 0.566,2.127 0.878,3.046 0.297,0.889 0.667,1.69 1.112,2.402 0.445,0.712 0.986,1.326 1.624,1.847 0.636,0.518 1.378,0.94 2.223,1.267 0.845,0.326 1.816,0.547 2.913,0.666 0.682,0.075 1.23,0.145 1.646,0.212 0.415,0.067 0.823,0.152 1.223,0.255 z" /></g><g
           transform="translate(153.5264,125.1143)"
           id="g64"><path
             id="path66"
             style="fill:#5b5b5b;fill-opacity:1;fill-rule:nonzero;stroke:none"
             d="M 0,0 H -2.691 L 0.11,11.632 H 2.801 Z M -8.542,5.493 C -8.853,5.493 -9.157,5.475 -9.454,5.437 -9.75,5.4 -10.002,5.359 -10.21,5.315 l -0.776,-3.358 c 0.207,-0.03 0.437,-0.055 0.689,-0.077 0.252,-0.023 0.556,-0.034 0.912,-0.034 0.948,0 1.686,0.181 2.213,0.545 0.526,0.363 0.789,0.901 0.789,1.612 0,0.475 -0.171,0.841 -0.512,1.101 -0.341,0.259 -0.89,0.389 -1.647,0.389 m -2.822,6.139 h 2.678 L -9.729,7.339 c 0.296,0.074 0.62,0.13 0.969,0.166 0.349,0.037 0.672,0.057 0.968,0.057 1.263,0 2.244,-0.282 2.942,-0.845 C -4.153,6.152 -3.803,5.323 -3.803,4.226 -3.803,3.515 -3.94,2.88 -4.214,2.324 -4.489,1.768 -4.882,1.301 -5.393,0.923 -5.905,0.545 -6.527,0.256 -7.262,0.056 c -0.734,-0.201 -1.553,-0.301 -2.457,-0.301 -0.711,0 -1.438,0.045 -2.179,0.135 -0.742,0.088 -1.468,0.237 -2.18,0.443 z" /></g><g
           transform="translate(164.4448,134.833)"
           id="g68"><path
             id="path70"
             style="fill:#5b5b5b;fill-opacity:1;fill-rule:nonzero;stroke:none"
             d="M 0,0 C -0.445,0 -0.867,-0.089 -1.268,-0.267 -1.667,-0.444 -2.024,-0.689 -2.335,-1.001 -2.646,-1.312 -2.917,-1.68 -3.146,-2.102 -3.377,-2.524 -3.543,-2.98 -3.647,-3.47 c 1.779,0.06 3.072,0.275 3.88,0.646 0.809,0.37 1.213,0.927 1.213,1.668 0,0.296 -0.108,0.562 -0.322,0.8 C 0.908,-0.119 0.534,0 0,0 m -6.471,-5.516 c 0,0.994 0.159,1.953 0.478,2.88 0.319,0.926 0.778,1.749 1.378,2.469 0.601,0.719 1.324,1.293 2.169,1.723 0.845,0.43 1.794,0.645 2.847,0.645 1.126,0 2.001,-0.288 2.623,-0.867 C 3.647,0.756 3.958,0.015 3.958,-0.89 3.958,-1.824 3.729,-2.579 3.27,-3.158 2.81,-3.736 2.213,-4.189 1.479,-4.515 0.745,-4.841 -0.085,-5.063 -1.012,-5.182 -1.938,-5.302 -2.876,-5.375 -3.825,-5.404 -3.84,-5.435 -3.847,-5.463 -3.847,-5.493 v -0.223 c 0,-1.349 0.852,-2.023 2.557,-2.023 1.008,0 2.017,0.207 3.025,0.623 l 0.222,-2.18 c -0.356,-0.163 -0.86,-0.326 -1.512,-0.49 -0.653,-0.163 -1.394,-0.244 -2.224,-0.244 -0.83,0 -1.542,0.119 -2.135,0.356 -0.593,0.237 -1.078,0.564 -1.456,0.978 -0.379,0.415 -0.656,0.894 -0.835,1.435 -0.177,0.54 -0.266,1.122 -0.266,1.745" /></g><g
           transform="translate(180.9238,136.7461)"
           id="g72"><path
             id="path74"
             style="fill:#5b5b5b;fill-opacity:1;fill-rule:nonzero;stroke:none"
             d="m 0,0 -1.083,-4.49 c 0.476,0.355 0.96,0.741 1.45,1.156 0.491,0.414 0.959,0.822 1.405,1.223 0.446,0.398 0.855,0.784 1.227,1.155 C 3.371,-0.586 3.69,-0.268 3.958,0 H 7.205 C 6.834,-0.416 6.416,-0.854 5.95,-1.312 5.484,-1.773 4.992,-2.239 4.474,-2.715 3.955,-3.188 3.418,-3.659 2.863,-4.127 c -0.555,-0.466 -1.099,-0.9 -1.633,-1.3 0.369,-0.385 0.742,-0.827 1.117,-1.324 0.377,-0.496 0.736,-1.022 1.081,-1.576 0.344,-0.554 0.66,-1.117 0.947,-1.689 0.287,-0.572 0.526,-1.11 0.717,-1.616 h -3 c -0.426,0.979 -0.952,1.956 -1.576,2.934 -0.625,0.978 -1.289,1.801 -1.995,2.469 l -1.325,-5.403 H -5.471 L -2.691,0 Z" /></g><g
           transform="translate(196.6963,134.6543)"
           id="g76"><path
             id="path78"
             style="fill:#5b5b5b;fill-opacity:1;fill-rule:nonzero;stroke:none"
             d="m 0,0 c -0.282,0.06 -0.602,0.09 -0.958,0.09 -0.667,0 -1.284,-0.146 -1.848,-0.435 -0.564,-0.288 -1.049,-0.674 -1.457,-1.156 -0.408,-0.481 -0.723,-1.034 -0.946,-1.656 -0.223,-0.623 -0.334,-1.276 -0.334,-1.958 0,-0.341 0.029,-0.659 0.089,-0.955 0.059,-0.298 0.159,-0.557 0.3,-0.78 0.141,-0.222 0.33,-0.4 0.567,-0.533 0.237,-0.133 0.541,-0.2 0.912,-0.2 0.475,0 0.893,0.101 1.257,0.301 0.363,0.2 0.7,0.47 1.012,0.811 0.014,0.385 0.047,0.748 0.1,1.09 0.051,0.341 0.122,0.682 0.211,1.023 z M 1.462,-5.025 C 1.417,-5.188 1.374,-5.456 1.329,-5.825 1.284,-6.196 1.262,-6.546 1.262,-6.87 c 0,-0.431 0.037,-0.85 0.112,-1.258 0.073,-0.407 0.191,-0.819 0.355,-1.234 l -2.401,-0.356 c -0.179,0.356 -0.32,0.734 -0.423,1.135 -0.371,-0.326 -0.827,-0.62 -1.368,-0.879 -0.541,-0.26 -1.153,-0.39 -1.834,-0.39 -0.698,0 -1.294,0.116 -1.791,0.345 -0.497,0.231 -0.9,0.549 -1.212,0.957 -0.311,0.408 -0.541,0.886 -0.689,1.435 -0.148,0.547 -0.223,1.14 -0.223,1.778 0,1.082 0.193,2.091 0.579,3.024 0.384,0.935 0.923,1.743 1.612,2.425 0.689,0.682 1.508,1.219 2.458,1.613 0.948,0.391 1.985,0.588 3.113,0.588 0.577,0 1.159,-0.047 1.745,-0.144 C 1.881,2.071 2.47,1.892 3.063,1.624 Z" /></g><g
           transform="translate(204.1567,127.2041)"
           id="g80"><path
             id="path82"
             style="fill:#5b5b5b;fill-opacity:1;fill-rule:nonzero;stroke:none"
             d="m 0,0 c 0.148,-0.028 0.304,-0.047 0.468,-0.055 0.163,-0.007 0.326,-0.01 0.49,-0.01 0.711,0 1.354,0.136 1.925,0.411 C 3.454,0.619 3.94,0.99 4.341,1.457 4.741,1.925 5.049,2.473 5.265,3.103 5.48,3.733 5.588,4.404 5.588,5.115 5.588,5.441 5.55,5.75 5.477,6.038 5.402,6.327 5.28,6.583 5.109,6.806 4.939,7.027 4.709,7.207 4.42,7.34 4.131,7.473 3.764,7.54 3.319,7.54 3.022,7.54 2.741,7.521 2.474,7.484 2.207,7.446 1.97,7.398 1.762,7.34 Z M 8.278,5.36 C 8.278,4.307 8.111,3.317 7.778,2.392 7.444,1.464 6.955,0.653 6.31,-0.044 5.666,-0.74 4.879,-1.293 3.953,-1.7 3.026,-2.108 1.963,-2.313 0.762,-2.313 c -0.208,0 -0.419,0.011 -0.634,0.034 -0.215,0.022 -0.426,0.049 -0.634,0.079 L -1.49,-6.204 H -4.175 L -0.506,9.074 C 0.102,9.297 0.78,9.475 1.529,9.607 2.277,9.741 3.03,9.808 3.787,9.808 4.557,9.808 5.228,9.693 5.799,9.463 6.37,9.233 6.836,8.919 7.2,8.518 7.562,8.117 7.834,7.647 8.012,7.105 8.189,6.564 8.278,5.982 8.278,5.36" /></g><g
           transform="translate(216.7275,136.2559)"
           id="g84"><path
             id="path86"
             style="fill:#5b5b5b;fill-opacity:1;fill-rule:nonzero;stroke:none"
             d="m 0,0 c 0.593,0.178 1.26,0.345 2.001,0.5 0.741,0.155 1.558,0.233 2.446,0.233 0.668,0 1.227,-0.095 1.68,-0.288 0.452,-0.193 0.834,-0.467 1.145,-0.823 0.43,0.252 0.952,0.501 1.568,0.745 0.615,0.245 1.315,0.366 2.101,0.366 0.682,0 1.26,-0.095 1.735,-0.288 0.474,-0.193 0.86,-0.46 1.156,-0.8 0.297,-0.342 0.512,-0.746 0.645,-1.212 0.133,-0.467 0.201,-0.976 0.201,-1.525 0,-0.607 -0.083,-1.253 -0.245,-1.934 l -1.468,-6.116 h -2.688 l 1.376,5.828 c 0.074,0.281 0.145,0.587 0.211,0.922 0.067,0.333 0.1,0.67 0.1,1.012 0,0.237 -0.026,0.47 -0.077,0.7 -0.053,0.23 -0.145,0.427 -0.279,0.59 -0.133,0.162 -0.315,0.296 -0.545,0.401 -0.23,0.102 -0.522,0.155 -0.877,0.155 C 9.8,-1.534 9.421,-1.608 9.051,-1.757 8.68,-1.905 8.369,-2.061 8.117,-2.225 8.176,-2.506 8.206,-2.81 8.206,-3.135 8.206,-3.433 8.184,-3.743 8.139,-4.069 8.095,-4.396 8.036,-4.715 7.961,-5.026 L 6.492,-11.142 H 3.803 l 1.378,5.828 c 0.074,0.266 0.145,0.573 0.212,0.922 0.066,0.347 0.1,0.693 0.1,1.035 0,0.488 -0.115,0.915 -0.345,1.278 -0.23,0.363 -0.664,0.545 -1.301,0.545 C 3.55,-1.534 3.269,-1.553 3.002,-1.59 2.735,-1.627 2.491,-1.676 2.269,-1.734 l -2.231,-9.408 h -2.706 z" /></g><g
           transform="translate(247.4834,125.1143)"
           id="g88"><path
             id="path90"
             style="fill:#5b5b5b;fill-opacity:1;fill-rule:nonzero;stroke:none"
             d="M 0,0 H -2.691 L 0.11,11.632 H 2.801 Z M -8.542,5.493 C -8.853,5.493 -9.157,5.475 -9.454,5.437 -9.75,5.4 -10.002,5.359 -10.21,5.315 l -0.776,-3.358 c 0.207,-0.03 0.437,-0.055 0.689,-0.077 0.252,-0.023 0.556,-0.034 0.912,-0.034 0.948,0 1.686,0.181 2.213,0.545 0.526,0.363 0.789,0.901 0.789,1.612 0,0.475 -0.171,0.841 -0.512,1.101 -0.341,0.259 -0.89,0.389 -1.647,0.389 m -2.822,6.139 h 2.678 L -9.729,7.339 c 0.296,0.074 0.619,0.13 0.969,0.166 0.348,0.037 0.672,0.057 0.968,0.057 1.263,0 2.243,-0.282 2.941,-0.845 C -4.153,6.152 -3.803,5.323 -3.803,4.226 -3.803,3.515 -3.94,2.88 -4.215,2.324 -4.489,1.768 -4.882,1.301 -5.394,0.923 -5.905,0.545 -6.527,0.256 -7.262,0.056 c -0.734,-0.201 -1.553,-0.301 -2.457,-0.301 -0.712,0 -1.438,0.045 -2.179,0.135 -0.742,0.088 -1.468,0.237 -2.18,0.443 z" /></g><g
           transform="translate(262.8945,132.0742)"
           id="g92"><path
             id="path94"
             style="fill:#5b5b5b;fill-opacity:1;fill-rule:nonzero;stroke:none"
             d="m 0,0 c 0.904,0 1.601,0.137 2.09,0.412 0.489,0.274 0.733,0.692 0.733,1.257 0,0.37 -0.13,0.655 -0.389,0.855 C 2.174,2.725 1.821,2.825 1.376,2.825 0.678,2.825 0.084,2.644 -0.405,2.28 -0.896,1.917 -1.235,1.253 -1.424,0.29 L -1.49,0 Z m -2.669,-4.98 c 0.207,-0.031 0.471,-0.059 0.789,-0.089 0.319,-0.031 0.663,-0.045 1.034,-0.045 0.401,0 0.785,0.03 1.157,0.089 0.371,0.059 0.7,0.168 0.99,0.323 0.289,0.155 0.522,0.355 0.7,0.599 0.178,0.246 0.267,0.56 0.267,0.946 0,0.459 -0.182,0.79 -0.545,0.989 -0.364,0.2 -0.91,0.301 -1.636,0.301 h -2.024 z m -1.379,5.315 c 0.207,0.859 0.492,1.582 0.857,2.167 0.362,0.586 0.789,1.06 1.278,1.425 0.489,0.361 1.03,0.622 1.623,0.777 0.593,0.155 1.224,0.233 1.891,0.233 1.215,0 2.146,-0.269 2.791,-0.81 C 5.036,3.584 5.359,2.898 5.359,2.069 5.359,1.343 5.159,0.721 4.758,0.202 4.358,-0.318 3.824,-0.696 3.157,-0.933 3.676,-1.11 4.088,-1.408 4.392,-1.822 4.695,-2.238 4.847,-2.704 4.847,-3.223 4.847,-4.513 4.328,-5.5 3.291,-6.182 2.253,-6.863 0.74,-7.205 -1.246,-7.205 c -0.741,0 -1.493,0.049 -2.257,0.145 -0.764,0.096 -1.494,0.248 -2.19,0.456 z" /></g><g
           transform="translate(282.708,134.7666)"
           id="g96"><path
             id="path98"
             style="fill:#5b5b5b;fill-opacity:1;fill-rule:nonzero;stroke:none"
             d="m 0,0 c -0.578,0 -1.094,-0.168 -1.546,-0.501 -0.452,-0.334 -0.83,-0.761 -1.134,-1.279 -0.303,-0.519 -0.538,-1.086 -0.7,-1.7 -0.164,-0.617 -0.245,-1.212 -0.245,-1.791 0,-0.742 0.141,-1.328 0.423,-1.756 0.281,-0.431 0.778,-0.646 1.49,-0.646 0.578,0 1.093,0.166 1.546,0.5 0.451,0.333 0.829,0.756 1.134,1.268 0.303,0.512 0.537,1.078 0.7,1.702 0.163,0.623 0.244,1.215 0.244,1.778 0,0.741 -0.141,1.331 -0.422,1.768 C 1.208,-0.219 0.711,0 0,0 m -2.046,-9.964 c -1.379,0 -2.432,0.408 -3.157,1.224 -0.727,0.814 -1.09,1.89 -1.09,3.224 0,0.86 0.133,1.75 0.399,2.668 0.268,0.919 0.675,1.758 1.224,2.513 0.548,0.757 1.237,1.38 2.067,1.869 0.832,0.488 1.81,0.734 2.937,0.734 1.378,0 2.431,-0.405 3.157,-1.213 0.727,-0.808 1.09,-1.878 1.09,-3.213 0,-0.875 -0.13,-1.772 -0.389,-2.69 C 3.933,-5.768 3.532,-6.605 2.991,-7.362 2.449,-8.117 1.761,-8.74 0.923,-9.229 0.085,-9.72 -0.904,-9.964 -2.046,-9.964" /></g><g
           transform="translate(295.7842,134.3213)"
           id="g100"><path
             id="path102"
             style="fill:#5b5b5b;fill-opacity:1;fill-rule:nonzero;stroke:none"
             d="m 0,0 c -0.622,0 -1.167,-0.148 -1.635,-0.445 -0.466,-0.296 -0.851,-0.686 -1.156,-1.167 -0.304,-0.482 -0.533,-1.034 -0.688,-1.658 -0.157,-0.622 -0.235,-1.267 -0.235,-1.934 0,-0.564 0.138,-1.037 0.412,-1.423 0.274,-0.386 0.745,-0.578 1.412,-0.578 0.564,0 1.071,0.178 1.523,0.533 0.452,0.356 0.838,0.841 1.157,1.457 0.318,0.614 0.57,1.335 0.756,2.157 0.185,0.823 0.301,1.693 0.345,2.613 C 1.639,-0.312 1.364,-0.204 1.067,-0.122 0.771,-0.041 0.415,0 0,0 m -1.734,5.782 c -0.446,0 -0.845,-0.041 -1.202,-0.123 -0.355,-0.081 -0.659,-0.181 -0.911,-0.3 l -0.2,2.268 c 0.296,0.104 0.678,0.2 1.145,0.29 0.467,0.09 0.974,0.133 1.523,0.133 0.891,0 1.697,-0.133 2.424,-0.401 C 1.771,7.383 2.392,6.968 2.902,6.404 3.414,5.841 3.81,5.106 4.093,4.202 4.373,3.299 4.515,2.217 4.515,0.955 4.515,-0.349 4.396,-1.627 4.159,-2.88 3.921,-4.133 3.536,-5.252 3.003,-6.237 2.469,-7.225 1.775,-8.017 0.923,-8.617 0.07,-9.218 -0.979,-9.519 -2.224,-9.519 c -1.334,0 -2.345,0.386 -3.035,1.157 -0.689,0.771 -1.034,1.831 -1.034,3.18 0,0.963 0.134,1.89 0.4,2.78 0.267,0.889 0.664,1.675 1.19,2.357 0.525,0.682 1.171,1.227 1.934,1.635 0.764,0.408 1.643,0.612 2.635,0.612 0.342,0 0.694,-0.034 1.057,-0.1 C 1.286,2.035 1.624,1.941 1.936,1.823 1.891,2.402 1.802,2.931 1.668,3.413 1.535,3.895 1.327,4.311 1.045,4.659 0.764,5.007 0.396,5.282 -0.056,5.482 c -0.452,0.2 -1.011,0.3 -1.678,0.3" /></g><g
           transform="translate(311.4844,125.1143)"
           id="g104"><path
             id="path106"
             style="fill:#5b5b5b;fill-opacity:1;fill-rule:nonzero;stroke:none"
             d="M 0,0 H -2.689 L -1.54,4.87 H -5.766 L -6.916,0 h -2.69 l 2.801,11.632 h 2.691 L -5.206,7.095 h 4.225 l 1.092,4.537 h 2.692 z" /></g><g
           transform="translate(322.2256,134.7666)"
           id="g108"><path
             id="path110"
             style="fill:#5b5b5b;fill-opacity:1;fill-rule:nonzero;stroke:none"
             d="m 0,0 c -0.578,0 -1.094,-0.168 -1.546,-0.501 -0.452,-0.334 -0.83,-0.761 -1.134,-1.279 -0.303,-0.519 -0.538,-1.086 -0.7,-1.7 -0.164,-0.617 -0.245,-1.212 -0.245,-1.791 0,-0.742 0.141,-1.328 0.423,-1.756 0.281,-0.431 0.778,-0.646 1.49,-0.646 0.578,0 1.093,0.166 1.546,0.5 0.451,0.333 0.829,0.756 1.134,1.268 0.303,0.512 0.537,1.078 0.7,1.702 0.163,0.623 0.244,1.215 0.244,1.778 0,0.741 -0.141,1.331 -0.422,1.768 C 1.208,-0.219 0.711,0 0,0 m -2.046,-9.964 c -1.379,0 -2.432,0.408 -3.157,1.224 -0.727,0.814 -1.09,1.89 -1.09,3.224 0,0.86 0.133,1.75 0.399,2.668 0.268,0.919 0.675,1.758 1.224,2.513 0.548,0.757 1.237,1.38 2.067,1.869 0.832,0.488 1.81,0.734 2.937,0.734 1.378,0 2.431,-0.405 3.157,-1.213 0.727,-0.808 1.09,-1.878 1.09,-3.213 0,-0.875 -0.13,-1.772 -0.389,-2.69 C 3.933,-5.768 3.532,-6.605 2.991,-7.362 2.449,-8.117 1.761,-8.74 0.923,-9.229 0.085,-9.72 -0.904,-9.964 -2.046,-9.964" /></g><g
           transform="translate(334.5674,126.5596)"
           id="g112"><path
             id="path114"
             style="fill:#5b5b5b;fill-opacity:1;fill-rule:nonzero;stroke:none"
             d="m 0,0 c -0.074,0.415 -0.163,0.894 -0.267,1.435 -0.104,0.541 -0.212,1.1 -0.323,1.679 -0.11,0.578 -0.222,1.152 -0.333,1.723 -0.111,0.571 -0.22,1.1 -0.322,1.59 -0.435,-1.318 -0.851,-2.67 -1.25,-4.057 -0.4,-1.387 -0.754,-2.658 -1.064,-3.815 h -2.534 c 0.24,0.858 0.514,1.792 0.818,2.799 0.304,1.008 0.617,2.029 0.936,3.061 0.32,1.033 0.649,2.041 0.985,3.026 0.335,0.986 0.654,1.9 0.953,2.746 H 0.022 C 0.244,9.222 0.477,8.099 0.72,6.816 0.964,5.533 1.219,4.159 1.485,2.691 2.504,4.352 3.428,5.805 4.255,7.05 5.082,8.295 5.807,9.341 6.427,10.187 H 8.873 C 8.805,9.369 8.722,8.483 8.625,7.527 8.527,6.57 8.412,5.589 8.277,4.58 8.145,3.572 7.991,2.558 7.819,1.535 7.648,0.512 7.458,-0.481 7.25,-1.445 H 4.604 C 4.879,-0.276 5.151,0.991 5.42,2.356 5.688,3.721 5.931,5.063 6.146,6.382 5.806,5.894 5.45,5.367 5.081,4.804 4.712,4.241 4.339,3.674 3.963,3.103 3.586,2.531 3.228,1.979 2.888,1.445 2.548,0.912 2.245,0.431 1.979,0 Z" /></g><g
           transform="translate(357.0947,126.5596)"
           id="g116"><path
             id="path118"
             style="fill:#5b5b5b;fill-opacity:1;fill-rule:nonzero;stroke:none"
             d="m 0,0 c -0.074,0.415 -0.163,0.894 -0.267,1.435 -0.104,0.541 -0.212,1.1 -0.322,1.679 -0.111,0.578 -0.223,1.152 -0.334,1.723 -0.111,0.571 -0.22,1.1 -0.322,1.59 -0.434,-1.318 -0.851,-2.67 -1.25,-4.057 -0.4,-1.387 -0.754,-2.658 -1.063,-3.815 h -2.535 c 0.24,0.858 0.514,1.792 0.818,2.799 0.304,1.008 0.617,2.029 0.936,3.061 0.321,1.033 0.649,2.041 0.985,3.026 0.335,0.986 0.654,1.9 0.953,2.746 H 0.022 C 0.244,9.222 0.477,8.099 0.721,6.816 0.964,5.533 1.219,4.159 1.485,2.691 2.504,4.352 3.428,5.805 4.255,7.05 5.082,8.295 5.807,9.341 6.428,10.187 H 8.873 C 8.805,9.369 8.722,8.483 8.625,7.527 8.527,6.57 8.412,5.589 8.278,4.58 8.145,3.572 7.991,2.558 7.82,1.535 7.648,0.512 7.459,-0.481 7.25,-1.445 H 4.604 C 4.879,-0.276 5.151,0.991 5.421,2.356 5.688,3.721 5.931,5.063 6.146,6.382 5.806,5.894 5.451,5.367 5.081,4.804 4.712,4.241 4.339,3.674 3.963,3.103 3.586,2.531 3.228,1.979 2.888,1.445 2.548,0.912 2.245,0.431 1.979,0 Z" /></g><g
           transform="translate(374.708,134.833)"
           id="g120"><path
             id="path122"
             style="fill:#5b5b5b;fill-opacity:1;fill-rule:nonzero;stroke:none"
             d="m 0,0 c -0.445,0 -0.867,-0.089 -1.268,-0.267 -0.4,-0.177 -0.755,-0.422 -1.067,-0.734 -0.311,-0.311 -0.582,-0.679 -0.811,-1.101 -0.231,-0.422 -0.397,-0.878 -0.501,-1.368 1.779,0.06 3.072,0.275 3.88,0.646 0.809,0.37 1.212,0.927 1.212,1.668 0,0.296 -0.107,0.562 -0.322,0.8 C 0.908,-0.119 0.533,0 0,0 m -6.472,-5.516 c 0,0.994 0.16,1.953 0.479,2.88 0.318,0.926 0.778,1.749 1.378,2.469 0.601,0.719 1.324,1.293 2.169,1.723 0.844,0.43 1.794,0.645 2.846,0.645 1.126,0 2.001,-0.288 2.624,-0.867 C 3.646,0.756 3.958,0.015 3.958,-0.89 3.958,-1.824 3.729,-2.579 3.27,-3.158 2.81,-3.736 2.213,-4.189 1.479,-4.515 0.745,-4.841 -0.086,-5.063 -1.012,-5.182 -1.938,-5.302 -2.876,-5.375 -3.825,-5.404 -3.84,-5.435 -3.848,-5.463 -3.848,-5.493 v -0.223 c 0,-1.349 0.853,-2.023 2.558,-2.023 1.008,0 2.017,0.207 3.024,0.623 l 0.223,-2.18 c -0.356,-0.163 -0.86,-0.326 -1.513,-0.49 -0.652,-0.163 -1.393,-0.244 -2.223,-0.244 -0.83,0 -1.542,0.119 -2.135,0.356 -0.593,0.237 -1.078,0.564 -1.456,0.978 -0.379,0.415 -0.656,0.894 -0.835,1.435 -0.178,0.54 -0.267,1.122 -0.267,1.745" /></g><g
           transform="translate(380.4238,129.5176)"
           id="g124"><path
             id="path126"
             style="fill:#5b5b5b;fill-opacity:1;fill-rule:nonzero;stroke:none"
             d="m 0,0 c 0,1.008 0.159,1.969 0.478,2.88 0.319,0.912 0.774,1.712 1.368,2.401 0.592,0.69 1.318,1.235 2.178,1.635 0.86,0.4 1.838,0.601 2.936,0.601 0.578,0 1.108,-0.048 1.59,-0.145 C 9.032,7.275 9.487,7.131 9.918,6.938 L 8.962,4.781 C 8.694,4.899 8.398,5.004 8.072,5.093 7.746,5.182 7.346,5.227 6.871,5.227 6.233,5.227 5.659,5.096 5.147,4.837 4.636,4.577 4.203,4.226 3.847,3.781 3.491,3.336 3.217,2.81 3.024,2.201 2.831,1.594 2.734,0.948 2.734,0.267 c 0,-0.386 0.041,-0.738 0.123,-1.056 0.081,-0.319 0.214,-0.602 0.4,-0.845 0.185,-0.245 0.441,-0.434 0.767,-0.567 0.327,-0.134 0.734,-0.2 1.224,-0.2 0.503,0 0.989,0.066 1.456,0.2 0.468,0.133 0.827,0.265 1.079,0.4 L 8.005,-4.003 C 7.664,-4.166 7.212,-4.325 6.649,-4.48 6.085,-4.636 5.448,-4.715 4.736,-4.715 3.921,-4.715 3.217,-4.593 2.623,-4.348 2.03,-4.104 1.537,-3.769 1.145,-3.347 0.752,-2.924 0.463,-2.428 0.277,-1.856 0.092,-1.286 0,-0.666 0,0" /></g><g
           transform="translate(393.3213,136.2559)"
           id="g128"><path
             id="path130"
             style="fill:#5b5b5b;fill-opacity:1;fill-rule:nonzero;stroke:none"
             d="m 0,0 c 0.593,0.178 1.26,0.345 2.002,0.5 0.74,0.155 1.557,0.233 2.445,0.233 0.668,0 1.228,-0.095 1.68,-0.288 0.451,-0.193 0.834,-0.467 1.145,-0.823 0.43,0.252 0.953,0.501 1.568,0.745 0.615,0.245 1.315,0.366 2.101,0.366 0.682,0 1.26,-0.095 1.735,-0.288 0.474,-0.193 0.86,-0.46 1.156,-0.8 0.297,-0.342 0.512,-0.746 0.646,-1.212 0.132,-0.467 0.2,-0.976 0.2,-1.525 0,-0.607 -0.082,-1.253 -0.245,-1.934 l -1.467,-6.116 h -2.689 l 1.376,5.828 c 0.074,0.281 0.145,0.587 0.211,0.922 0.067,0.333 0.101,0.67 0.101,1.012 0,0.237 -0.027,0.47 -0.078,0.7 -0.053,0.23 -0.145,0.427 -0.279,0.59 -0.132,0.162 -0.315,0.296 -0.545,0.401 -0.229,0.102 -0.522,0.155 -0.877,0.155 C 9.8,-1.534 9.422,-1.608 9.051,-1.757 8.681,-1.905 8.369,-2.061 8.117,-2.225 8.177,-2.506 8.206,-2.81 8.206,-3.135 8.206,-3.433 8.184,-3.743 8.14,-4.069 8.095,-4.396 8.035,-4.715 7.961,-5.026 l -1.47,-6.116 H 3.803 l 1.379,5.828 c 0.074,0.266 0.144,0.573 0.211,0.922 0.067,0.347 0.1,0.693 0.1,1.035 0,0.488 -0.115,0.915 -0.345,1.278 -0.23,0.363 -0.664,0.545 -1.3,0.545 -0.297,0 -0.579,-0.019 -0.846,-0.056 C 2.735,-1.627 2.491,-1.676 2.269,-1.734 l -2.231,-9.408 h -2.706 z" /></g><g
           transform="translate(416.9385,134.833)"
           id="g132"><path
             id="path134"
             style="fill:#5b5b5b;fill-opacity:1;fill-rule:nonzero;stroke:none"
             d="m 0,0 c -0.444,0 -0.867,-0.089 -1.268,-0.267 -0.399,-0.177 -0.755,-0.422 -1.067,-0.734 -0.311,-0.311 -0.581,-0.679 -0.811,-1.101 -0.231,-0.422 -0.397,-0.878 -0.5,-1.368 1.779,0.06 3.072,0.275 3.879,0.646 0.809,0.37 1.213,0.927 1.213,1.668 0,0.296 -0.108,0.562 -0.322,0.8 C 0.908,-0.119 0.534,0 0,0 m -6.471,-5.516 c 0,0.994 0.159,1.953 0.478,2.88 0.319,0.926 0.778,1.749 1.379,2.469 0.6,0.719 1.323,1.293 2.168,1.723 0.845,0.43 1.794,0.645 2.847,0.645 1.126,0 2.001,-0.288 2.623,-0.867 C 3.647,0.756 3.959,0.015 3.959,-0.89 3.959,-1.824 3.729,-2.579 3.27,-3.158 2.81,-3.736 2.214,-4.189 1.479,-4.515 0.745,-4.841 -0.085,-5.063 -1.012,-5.182 -1.937,-5.302 -2.876,-5.375 -3.824,-5.404 -3.84,-5.435 -3.847,-5.463 -3.847,-5.493 v -0.223 c 0,-1.349 0.852,-2.023 2.557,-2.023 1.009,0 2.017,0.207 3.025,0.623 l 0.222,-2.18 c -0.355,-0.163 -0.859,-0.326 -1.512,-0.49 -0.652,-0.163 -1.394,-0.244 -2.223,-0.244 -0.831,0 -1.542,0.119 -2.135,0.356 -0.594,0.237 -1.079,0.564 -1.457,0.978 -0.378,0.415 -0.656,0.894 -0.834,1.435 -0.178,0.54 -0.267,1.122 -0.267,1.745" /></g><g
           id="g136"><g
             id="g138" /><g
             id="g150"><g
               style="opacity:0.89999402"
               id="g148"
               clip-path="url(#clipPath142)"><g
                 id="g146"
                 transform="translate(291.3379,377.4854)"><path
                   id="path144"
                   style="fill:#fcb106;fill-opacity:1;fill-rule:nonzero;stroke:none"
                   d="m 0,0 -42.307,-42.307 -13.514,13.515 42.306,42.307 z" /></g></g></g></g><g
           transform="translate(269.8604,285.4316)"
           id="g152"><path
             id="path154"
             style="fill:#ffffff;fill-opacity:1;fill-rule:nonzero;stroke:none"
             d="M 0,0 -14.459,-14.459 -37.484,8.565 c -3.734,3.735 -3.523,9.993 0.472,13.988 3.995,3.994 10.253,4.206 13.987,0.472 z" /></g><g
           transform="translate(263.1025,292.189)"
           id="g156"><path
             id="path158"
             style="fill:#ff5151;fill-opacity:1;fill-rule:nonzero;stroke:none"
             d="m 0,0 -14.459,-14.459 13.515,-13.515 14.459,14.459 z" /></g><g
           id="g160"><g
             id="g162" /><g
             id="g174"><g
               style="opacity:0.89999402"
               id="g172"
               clip-path="url(#clipPath166)"><g
                 id="g170"
                 transform="translate(263.1025,292.189)"><path
                   id="path168"
                   style="fill:#ff5151;fill-opacity:1;fill-rule:nonzero;stroke:none"
                   d="m 0,0 8.274,8.274 c 3.336,3.336 3.514,8.589 0.395,11.707 L -39.732,68.383 -75.988,32.128 c -3.336,-3.336 -3.513,-8.589 -0.395,-11.707 l 42.746,-42.746 c 3.118,-3.118 8.371,-2.941 11.707,0.395 l 7.471,7.471 13.515,-13.515 -7.471,-7.47 c -11.327,-11.327 -29.095,-11.927 -39.681,-1.34 L -90.842,5.961 c -10.587,10.587 -9.987,28.355 1.34,39.682 L -38.788,96.357 23.129,34.44 C 33.715,23.854 33.115,6.086 21.788,-5.241 l -8.273,-8.274 z" /></g></g></g></g><g
           id="g176"><g
             id="g178" /><g
             id="g190"><g
               style="opacity:0.89999402"
               id="g188"
               clip-path="url(#clipPath182)"><g
                 id="g186"
                 transform="translate(338.3994,289.4023)"><path
                   id="path184"
                   style="fill:#fcb106;fill-opacity:1;fill-rule:nonzero;stroke:none"
                   d="m 0,0 -30.203,-30.204 c -11.326,-11.326 -29.095,-11.926 -39.682,-1.34 l -36.138,36.139 c -3.734,3.734 -3.523,9.992 0.472,13.987 3.995,3.995 10.253,4.206 13.987,0.472 l 36.138,-36.138 c 3.119,-3.119 8.372,-2.942 11.708,0.395 l 30.203,30.203 c 3.337,3.337 3.515,8.59 0.396,11.708 L -61.521,73.624 -47.062,88.083 1.341,39.681 C 11.927,29.095 11.327,11.326 0,0" /></g></g></g></g><g
           id="g192"><g
             id="g194" /><g
             id="g206"><g
               style="opacity:0.89999402"
               id="g204"
               clip-path="url(#clipPath198)"><g
                 id="g202"
                 transform="translate(246.8906,294.0581)"><path
                   id="path200"
                   style="fill:#720c0c;fill-opacity:1;fill-rule:nonzero;stroke:none"
                   d="m 0,0 c -2.052,-2.053 -5.38,-2.053 -7.433,0 -2.052,2.052 -2.052,5.38 0,7.433 2.053,2.052 5.381,2.052 7.433,0 C 2.053,5.38 2.053,2.052 0,0" /></g></g></g></g></g></g></g></svg>